<svg width="22" height="22" viewBox="0 0 22 22" fill="none" xmlns="http://www.w3.org/2000/svg">
<path d="M2.25485 11.1366C2.12739 11.2108 2.02163 11.3172 1.94813 11.4451C1.87462 11.5729 1.83594 11.7179 1.83594 11.8654C1.83594 12.0128 1.87462 12.1578 1.94813 12.2856C2.02163 12.4135 2.12739 12.5199 2.25485 12.5941L5.49068 14.4274V18.1674C5.49016 18.3157 5.52874 18.4615 5.60254 18.5901C5.67635 18.7188 5.78276 18.8257 5.91105 18.9C6.03934 18.9744 6.18498 19.0136 6.33327 19.0138C6.48156 19.0139 6.62726 18.9749 6.75568 18.9008L10.0007 17.0674V11.9158L5.49985 9.2666L2.25485 11.1366Z" fill="#FE5719"/>
<path d="M19.7449 11.137L16.509 9.30371L11.999 11.9162V17.1137L15.244 18.947C15.3724 19.0212 15.5181 19.0602 15.6664 19.06C15.8147 19.0599 15.9604 19.0207 16.0887 18.9463C16.2169 18.8719 16.3234 18.765 16.3972 18.6364C16.471 18.5078 16.5095 18.362 16.509 18.2137V14.4645L19.7449 12.6312C19.8812 12.5598 19.9954 12.4524 20.0751 12.3207C20.1548 12.189 20.1969 12.0381 20.1969 11.8841C20.1969 11.7302 20.1548 11.5792 20.0751 11.4475C19.9954 11.3158 19.8812 11.2085 19.7449 11.137Z" fill="#FE5719"/>
<path d="M14.2357 3.06123L10.9999 4.93123L7.76403 3.0979C7.63561 3.02375 7.4899 2.98478 7.34161 2.98491C7.19332 2.98504 7.04769 3.02427 6.9194 3.09864C6.79111 3.17301 6.68469 3.2799 6.61089 3.40852C6.53709 3.53714 6.4985 3.68294 6.49903 3.83123V7.53456L10.9999 10.1287L15.5007 7.53456V3.79456C15.5012 3.64627 15.4626 3.50047 15.3888 3.37185C15.315 3.24323 15.2086 3.13635 15.0803 3.06197C14.952 2.9876 14.8064 2.94837 14.6581 2.94824C14.5098 2.94811 14.3641 2.98708 14.2357 3.06123Z" fill="#FE5719"/>
</svg>
